<svg width="775" height="157" viewBox="0 0 775 157" fill="none" xmlns="http://www.w3.org/2000/svg">
<path d="M40 127.4L41.2 98.8H113L114 127.4H40ZM76.6 67.4L58.2 109.4L60.6 118L44.4 150H0.4L76.6 0.599992L153 150H109L93 119.4L95.2 109.4L76.6 67.4ZM204.767 88.2H244.567L286.567 150H241.367L204.767 88.2ZM166.767 9.99999H205.567V150H166.767V9.99999ZM191.567 42.8V9.99999H221.767C234.567 9.99999 245.101 12 253.367 16C261.767 20 267.967 25.5333 271.967 32.6C276.101 39.5333 278.167 47.6 278.167 56.8C278.167 65.8667 276.101 74 271.967 81.2C267.967 88.2667 261.767 93.8 253.367 97.8C245.101 101.667 234.567 103.6 221.767 103.6H191.567V74.2H218.567C222.701 74.2 226.167 73.6 228.967 72.4C231.767 71.2 233.901 69.4 235.367 67C236.967 64.6 237.767 61.7333 237.767 58.4C237.767 55.0667 236.967 52.2667 235.367 50C233.901 47.6 231.767 45.8 228.967 44.6C226.167 43.4 222.701 42.8 218.567 42.8H191.567ZM301.338 9.99999H340.938V150H301.338V9.99999ZM355.697 44.6V9.99999H472.897V44.6H433.697V150H394.897V44.6H355.697ZM510.705 80C510.705 87.4667 512.171 94.1333 515.105 100C518.038 105.733 522.171 110.267 527.505 113.6C532.838 116.8 539.105 118.4 546.305 118.4C553.638 118.4 559.905 116.8 565.105 113.6C570.438 110.267 574.571 105.733 577.505 100C580.438 94.1333 581.905 87.4667 581.905 80C581.905 72.4 580.505 65.7333 577.705 60C574.905 54.2667 570.838 49.8 565.505 46.6C560.305 43.2667 553.905 41.6 546.305 41.6C539.105 41.6 532.838 43.2667 527.505 46.6C522.171 49.8 518.038 54.2667 515.105 60C512.171 65.7333 510.705 72.4 510.705 80ZM469.705 80C469.705 68.9333 471.638 58.9333 475.505 50C479.505 40.9333 484.971 33.2 491.905 26.8C498.838 20.2667 506.905 15.2667 516.105 11.8C525.438 8.19999 535.505 6.39999 546.305 6.39999C557.371 6.39999 567.505 8.19999 576.705 11.8C586.038 15.2667 594.171 20.2667 601.105 26.8C608.038 33.2 613.371 40.9333 617.105 50C620.971 58.9333 622.905 68.9333 622.905 80C622.905 90.9333 621.038 101 617.305 110.2C613.571 119.4 608.305 127.4 601.505 134.2C594.705 140.867 586.571 146.067 577.105 149.8C567.771 153.4 557.505 155.2 546.305 155.2C535.105 155.2 524.838 153.4 515.505 149.8C506.171 146.067 498.038 140.867 491.105 134.2C484.305 127.4 479.038 119.4 475.305 110.2C471.571 101 469.705 90.9333 469.705 80ZM737.52 9.99999H774.72V157L680.92 78.8V150H643.72V3L737.52 81.2V9.99999Z" fill="black"/>
</svg>
