<?xml version="1.0" encoding="UTF-8"?>
<svg id="Layer_2" data-name="Layer 2" xmlns="http://www.w3.org/2000/svg" viewBox="0 0 424.38 88.25">
  <defs>
    <style>
      .cls-1 {
        fill: #fff;
        stroke-width: 0px;
      }
    </style>
  </defs>
  <g id="Layer_1-2" data-name="Layer 1">
    <path class="cls-1" d="M296.89,3.35c21.35.03,38.16,13.15,41.67,32.53,5.55,30.59-17.24,54.59-48.07,50.52-16.27-2.15-28.18-10.52-33.67-26.15-5.56-15.86-3.58-31.02,8.02-43.86,8.47-9.38,19.59-13.06,32.04-13.04ZM274.56,44.8c-.33,17.4,14.2,27.35,29.63,22.54,9.73-3.03,15.19-12.27,14.72-24.29-.6-15.5-13.07-24.98-28.14-21.4-9.99,2.37-16.22,11.27-16.21,23.15Z"/>
    <path class="cls-1" d="M405.78,5.26h18.6v83c-18.22-16.14-36.05-31.93-54.42-48.2v44.06h-18.45V1.14c18.2,16.15,35.94,31.9,54.27,48.17V5.26Z"/>
    <path class="cls-1" d="M135.84,54.87c6.58,9.56,13.23,19.25,20.26,29.47-7.62,0-14.66.06-21.7-.09-.72-.02-1.59-1.17-2.1-1.98-4.55-7.25-9.03-14.54-13.53-21.81q-2.49-4.01-7.79-3.26v26.94h-19.18V5.06c2.57,0,5.05-.06,7.53.01,10.32.29,20.71-.04,30.93,1.12,9.84,1.12,17.09,6.92,19.84,16.75,2.75,9.84,1.41,19.14-6.44,26.52-2.24,2.1-5.08,3.55-7.82,5.41ZM110.99,41.72c3.95,0,7.6.28,11.19-.07,4.2-.41,7.62-2.49,8.77-6.85,1.06-4.05.59-8.03-3.01-10.76-5.18-3.91-11.14-2.48-16.95-2.69v20.37Z"/>
    <path class="cls-1" d="M83.51,84.26h-21.86c-2.14-4.34-4.32-8.61-6.35-12.96-.7-1.51-1.53-2.18-3.28-2.16-6.89.1-13.78.1-20.67,0-1.73-.03-2.59.55-3.28,2.11-1.7,3.81-3.55,7.55-5.47,11.25-.4.77-1.37,1.74-2.09,1.76-6.64.14-13.29.08-20.49.08C13.98,56.08,27.73,28.28,41.71,0c14.01,28.24,27.79,56.04,41.79,84.26ZM50.35,54.27c-2.91-6.68-5.67-12.99-8.65-19.82-2.99,6.89-5.74,13.23-8.6,19.82h17.25Z"/>
    <path class="cls-1" d="M214.72,22.26h-21.41V5.23h62.23v16.9h-21.5v62.02h-19.32V22.26Z"/>
    <path class="cls-1" d="M165.07,5.25h19.14v78.88h-19.14V5.25Z"/>
  </g>
</svg>