<?xml version="1.0" encoding="UTF-8"?>
<svg id="Layer_2" data-name="Layer 2" xmlns="http://www.w3.org/2000/svg" viewBox="0 0 310.4 308.53">
  <defs>
    <style>
      .cls-1 {
        fill: #000;
      }

      .cls-1, .cls-2 {
        stroke-width: 0px;
      }

      .cls-2 {
        fill: #fff;
      }
    </style>
  </defs>
  <g id="Layer_1-2" data-name="Layer 1">
    <path class="cls-1" d="M310.4,155.82c-.15,84.74-69.21,152.94-154.6,152.71C69.81,308.3-.26,238.22,0,152.72.26,68.14,69.09-.12,153.99,0c86.49.12,156.57,69.94,156.41,155.82ZM96.2,46.69c-5.47-1.59-10.7-2.78-16.36-.98-7.72,2.44-12.92,7.21-14.98,14.93-.85,3.18-1.83,4.91-5.4,5.33-7.42.88-13.75,4.19-18.34,10.27-6.03,7.97-8,16.79-5.32,26.55.27.97.38,2.6-.17,3.08-4.66,4.08-6.59,9.54-8.08,15.24-5.3,20.27-5.67,40.64-1.24,61.12,6.67,30.84,21.5,56.8,46.86,75.89,41.88,31.54,87.63,36.25,135.52,16.37,31.51-13.08,52.65-37.46,65.99-68.46,11.96-27.8,15.29-56.49,6.18-85.92-1.1-3.56-2.36-7.18-4.25-10.36-1.39-2.34-2.18-4.31-1.2-6.89,3.68-9.74-2.93-25.64-11.67-31.56-5.9-3.99-12.42-5.13-19.29-6.43-.89-7.63-4.9-13.44-11.6-17.14-6.72-3.7-13.87-4.03-20.93-1.14-7.62-13.58-15.31-17.01-26.16-16.86-13.31.18-22.43,7.45-25.19,20.89h-13.04c-3.71-14.62-14.56-20.65-26.01-20.93-10.78-.27-19.74,4.08-25.33,16.99Z"/>
    <path class="cls-2" d="M96.2,46.69c5.58-12.91,14.55-17.26,25.33-16.99,11.46.29,22.31,6.32,26.01,20.93h13.04c2.76-13.44,11.88-20.71,25.19-20.89,10.85-.14,18.54,3.28,26.16,16.86,7.06-2.89,14.21-2.56,20.93,1.14,6.7,3.7,10.7,9.5,11.6,17.14,6.87,1.3,13.39,2.43,19.29,6.43,8.75,5.92,15.35,21.82,11.67,31.56-.98,2.58-.19,4.55,1.2,6.89,1.89,3.18,3.14,6.8,4.25,10.36,9.11,29.43,5.78,58.12-6.18,85.92-13.34,31-34.48,55.38-65.99,68.46-47.89,19.87-93.64,15.17-135.52-16.37-25.35-19.1-40.19-45.06-46.86-75.89-4.43-20.48-4.07-40.85,1.24-61.12,1.49-5.7,3.41-11.16,8.08-15.24.55-.48.44-2.11.17-3.08-2.68-9.76-.71-18.58,5.32-26.55,4.59-6.07,10.92-9.39,18.34-10.27,3.57-.42,4.55-2.15,5.4-5.33,2.06-7.72,7.25-12.48,14.98-14.93,5.67-1.79,10.9-.61,16.36.98ZM263.78,117.47c-11.52,5.36-17.06,14.16-16.57,25.38.27,6.25.15,12.53-.09,18.79-.89,24.2-11.55,44.29-28.32,60.71-31.55,30.88-73.87,33.6-110.21,13.8-27.32-14.89-43.5-38.17-46.59-69.63-.85-8.72-.63-17.54-1.36-26.28-.33-3.95-.8-8.5-2.94-11.55-3.14-4.46-7.84-7.82-12.47-12.22-7.81,17.37-7.89,34.66-6.08,51.75,2.91,27.49,14.33,51.42,34.46,70.59,46.21,43.98,112.54,39.76,152.17,8.07,41.1-32.86,55.39-91.33,38.01-129.42ZM87.59,115.29c-5.51,5.92-7.5,17.07-8.07,33.34-.71,20.36,6.36,38.01,19.65,52.32,27.37,29.45,72.17,35.28,105.03,5.82,29.51-26.45,30.97-69.71,17.13-92.34-4.66,4.17-9.36,8.11-13.73,12.38-2.77,2.7-4,6.21-3.87,10.24.15,4.9-.14,9.82-.06,14.73.17,10.6-3.14,20.17-8.79,28.92-8.56,13.25-20.69,21.44-36.52,22.35-24.33,1.41-43.16-12.34-50.73-35.57-2.7-8.29-2.53-16.7-2.05-25.12.45-7.91-2.65-14-8.21-19.09-3.07-2.8-6.44-5.28-9.77-7.99ZM189.99,152.57c.04-20.08-15.83-36.55-35.21-36.54-18.92,0-34.29,15.83-34.37,35.41-.08,20.25,15.74,36.65,35.38,36.68,18.83.03,34.16-15.91,34.2-35.55ZM154.39,65.23c-9.03-.07-16.4,7.23-16.41,16.26-.02,9.48,7.78,17.41,17.25,17.57,9.04.15,16.48-7.08,16.57-16.1.1-9.6-7.8-17.65-17.41-17.72ZM197.58,80.28c-8.13.04-14.53,6.67-14.44,14.97.1,8.85,7.44,16.32,16.08,16.35,8.15.03,14.57-6.49,14.6-14.81.03-8.94-7.46-16.55-16.24-16.51ZM109.74,80.29c-8.11.07-14.45,6.5-14.41,14.61.04,8.75,7.52,16.13,16.28,16.06,8.11-.06,14.45-6.5,14.41-14.61-.04-8.75-7.53-16.14-16.28-16.06ZM65.63,110.97c8.11.03,14.56-6.33,14.61-14.42.05-8.76-7.34-16.23-16.09-16.26-8.12-.03-14.56,6.33-14.61,14.42-.05,8.76,7.33,16.23,16.08,16.26ZM247.08,110.97c8.1-.07,14.45-6.51,14.4-14.62-.05-8.75-7.54-16.13-16.29-16.05-8.11.07-14.44,6.51-14.4,14.62.05,8.75,7.53,16.13,16.29,16.05ZM120.88,44.53c-6.22,0-11.12,4.88-11.12,11.1,0,6.76,5.74,12.6,12.5,12.69,6.24.08,11.21-4.73,11.29-10.93.09-6.87-5.8-12.86-12.66-12.86ZM198.76,57.31c.04-6.87-5.89-12.82-12.74-12.78-6.21.03-11.07,4.96-11.04,11.18.03,6.76,5.82,12.56,12.58,12.61,6.23.04,11.17-4.81,11.2-11.01ZM230.12,68.85c.01-4.93-3.98-9.17-8.72-9.26-4.59-.09-8.23,3.67-8.17,8.42.06,4.92,4.15,9.11,8.88,9.1,4.47,0,7.99-3.64,8.01-8.26ZM87.37,77.11c4.47-.05,7.95-3.72,7.92-8.35-.03-5.06-4.26-9.31-9.12-9.17-4.45.13-7.87,3.87-7.77,8.5.11,4.93,4.23,9.07,8.96,9.02Z"/>
    <path class="cls-1" d="M263.78,117.47c17.38,38.09,3.09,96.56-38.01,129.42-39.63,31.69-105.96,35.91-152.17-8.07-20.13-19.16-31.55-43.1-34.46-70.59-1.81-17.09-1.72-34.38,6.08-51.75,4.64,4.4,9.34,7.76,12.47,12.22,2.15,3.05,2.61,7.6,2.94,11.55.73,8.74.51,17.56,1.36,26.28,3.08,31.46,19.27,54.74,46.59,69.63,36.33,19.8,78.65,17.07,110.21-13.8,16.78-16.42,27.43-36.51,28.32-60.71.23-6.26.36-12.54.09-18.79-.49-11.22,5.05-20.02,16.57-25.38Z"/>
    <path class="cls-1" d="M87.59,115.29c3.34,2.71,6.71,5.18,9.77,7.99,5.57,5.09,8.67,11.19,8.21,19.09-.48,8.42-.66,16.82,2.05,25.12,7.57,23.23,26.4,36.98,50.73,35.57,15.83-.92,27.97-9.11,36.52-22.35,5.65-8.75,8.96-18.32,8.79-28.92-.08-4.91.21-9.82.06-14.73-.12-4.03,1.11-7.54,3.87-10.24,4.37-4.27,9.07-8.21,13.73-12.38,13.84,22.63,12.38,65.89-17.13,92.34-32.86,29.45-77.67,23.63-105.03-5.82-13.29-14.31-20.36-31.96-19.65-52.32.57-16.27,2.56-27.43,8.07-33.34Z"/>
    <path class="cls-1" d="M189.99,152.57c-.04,19.64-15.37,35.58-34.2,35.55-19.64-.03-35.46-16.43-35.38-36.68.08-19.57,15.45-35.4,34.37-35.41,19.37,0,35.24,16.46,35.21,36.54ZM135.21,167.28c2.24,0,3.9-.2,5.49.04,3.6.55,6.01-.54,6.98-4.24.68-2.61,2.36-3.71,5.08-3.17.6.12,1.27.12,1.87,0,4.31-.83,7.11.67,8.39,5.02.27.91,1.35,2.15,2.14,2.22,2.94.27,5.91.11,9.37.11-6.66-13.43-13.04-26.29-19.68-39.68-6.67,13.48-13,26.26-19.65,39.7Z"/>
    <path class="cls-1" d="M154.39,65.23c9.61.07,17.51,8.12,17.41,17.72-.1,9.02-7.53,16.25-16.57,16.1-9.48-.15-17.27-8.09-17.25-17.57.02-9.03,7.39-16.33,16.41-16.26Z"/>
    <path class="cls-1" d="M197.58,80.28c8.78-.05,16.27,7.56,16.24,16.51-.02,8.33-6.45,14.85-14.6,14.81-8.64-.04-15.99-7.5-16.08-16.35-.09-8.29,6.31-14.92,14.44-14.97Z"/>
    <path class="cls-1" d="M109.74,80.29c8.75-.07,16.24,7.31,16.28,16.06.04,8.11-6.31,14.55-14.41,14.61-8.76.07-16.24-7.31-16.28-16.06-.04-8.12,6.3-14.55,14.41-14.61Z"/>
    <path class="cls-1" d="M65.63,110.97c-8.75-.03-16.14-7.5-16.08-16.26.05-8.09,6.49-14.45,14.61-14.42,8.74.03,16.14,7.51,16.09,16.26-.05,8.09-6.5,14.45-14.61,14.42Z"/>
    <path class="cls-1" d="M247.08,110.97c-8.76.07-16.24-7.3-16.29-16.05-.04-8.12,6.29-14.55,14.4-14.62,8.75-.08,16.24,7.3,16.29,16.05.05,8.11-6.3,14.55-14.4,14.62Z"/>
    <path class="cls-1" d="M120.88,44.53c6.85,0,12.75,6,12.66,12.86-.08,6.2-5.05,11.01-11.29,10.93-6.75-.09-12.5-5.94-12.5-12.69,0-6.22,4.91-11.11,11.12-11.1Z"/>
    <path class="cls-1" d="M198.76,57.31c-.04,6.21-4.97,11.06-11.2,11.01-6.75-.05-12.54-5.85-12.58-12.61-.03-6.23,4.83-11.15,11.04-11.18,6.86-.04,12.79,5.91,12.74,12.78Z"/>
    <path class="cls-1" d="M230.12,68.85c-.01,4.62-3.53,8.25-8.01,8.26-4.73,0-8.82-4.18-8.88-9.1-.06-4.75,3.58-8.51,8.17-8.42,4.74.09,8.74,4.33,8.72,9.26Z"/>
    <path class="cls-1" d="M87.37,77.11c-4.74.06-8.85-4.09-8.96-9.02-.1-4.63,3.31-8.37,7.77-8.5,4.86-.14,9.09,4.11,9.12,9.17.03,4.63-3.45,8.29-7.92,8.35Z"/>
    <path class="cls-2" d="M135.21,167.28c6.65-13.44,12.98-26.22,19.65-39.7,6.64,13.39,13.02,26.25,19.68,39.68-3.46,0-6.43.16-9.37-.11-.8-.07-1.88-1.31-2.14-2.22-1.28-4.35-4.08-5.86-8.39-5.02-.6.12-1.27.12-1.87,0-2.72-.55-4.4.56-5.08,3.17-.97,3.71-3.38,4.8-6.98,4.24-1.59-.25-3.26-.04-5.49-.04ZM151.14,152.89h7.48c-1.23-2.81-2.35-5.39-3.77-8.63-1.44,3.34-2.53,5.89-3.71,8.63Z"/>
    <path class="cls-1" d="M151.14,152.89c1.18-2.75,2.27-5.29,3.71-8.63,1.42,3.24,2.54,5.82,3.77,8.63h-7.48Z"/>
  </g>
</svg>